<mxfile host="Electron" agent="Mozilla/5.0 (Windows NT 10.0; Win64; x64) AppleWebKit/537.36 (KHTML, like Gecko) draw.io/25.0.2 Chrome/128.0.6613.186 Electron/32.2.5 Safari/537.36" version="25.0.2">
  <diagram name="Página-1" id="9chqvvcu9J9O-ScPjh9t">
    <mxGraphModel dx="840" dy="497" grid="1" gridSize="10" guides="1" tooltips="1" connect="1" arrows="1" fold="1" page="1" pageScale="1" pageWidth="827" pageHeight="1169" math="0" shadow="0">
      <root>
        <mxCell id="0" />
        <mxCell id="1" parent="0" />
        <mxCell id="YiDJv-N9dp5llAnubtPS-1" value="Cliente" style="shape=umlActor;verticalLabelPosition=bottom;verticalAlign=top;html=1;outlineConnect=0;" vertex="1" parent="1">
          <mxGeometry x="40" y="180" width="30" height="60" as="geometry" />
        </mxCell>
        <mxCell id="YiDJv-N9dp5llAnubtPS-5" style="edgeStyle=orthogonalEdgeStyle;rounded=0;orthogonalLoop=1;jettySize=auto;html=1;entryX=1;entryY=0.3333333333333333;entryDx=0;entryDy=0;entryPerimeter=0;endArrow=none;endFill=0;" edge="1" parent="1" source="YiDJv-N9dp5llAnubtPS-4" target="YiDJv-N9dp5llAnubtPS-1">
          <mxGeometry relative="1" as="geometry">
            <mxPoint x="200" y="200" as="targetPoint" />
          </mxGeometry>
        </mxCell>
        <mxCell id="YiDJv-N9dp5llAnubtPS-4" value="Gestionar reserva" style="ellipse;whiteSpace=wrap;html=1;" vertex="1" parent="1">
          <mxGeometry x="130" y="160" width="120" height="80" as="geometry" />
        </mxCell>
        <mxCell id="YiDJv-N9dp5llAnubtPS-6" value="" style="endArrow=classic;dashed=1;html=1;rounded=0;entryX=0.003;entryY=0.41;entryDx=0;entryDy=0;entryPerimeter=0;exitX=1;exitY=1;exitDx=0;exitDy=0;endFill=1;" edge="1" parent="1" source="YiDJv-N9dp5llAnubtPS-4" target="YiDJv-N9dp5llAnubtPS-7">
          <mxGeometry width="50" height="50" relative="1" as="geometry">
            <mxPoint x="470" y="160" as="sourcePoint" />
            <mxPoint x="550" y="80" as="targetPoint" />
          </mxGeometry>
        </mxCell>
        <mxCell id="YiDJv-N9dp5llAnubtPS-8" value="&amp;lt;&amp;lt; include &amp;gt;&amp;gt;" style="edgeLabel;html=1;align=center;verticalAlign=middle;resizable=0;points=[];" vertex="1" connectable="0" parent="YiDJv-N9dp5llAnubtPS-6">
          <mxGeometry x="0.1674" y="2" relative="1" as="geometry">
            <mxPoint as="offset" />
          </mxGeometry>
        </mxCell>
        <mxCell id="YiDJv-N9dp5llAnubtPS-7" value="Registrarse" style="ellipse;whiteSpace=wrap;html=1;" vertex="1" parent="1">
          <mxGeometry x="370" y="280" width="120" height="80" as="geometry" />
        </mxCell>
        <mxCell id="YiDJv-N9dp5llAnubtPS-14" style="edgeStyle=orthogonalEdgeStyle;rounded=0;orthogonalLoop=1;jettySize=auto;html=1;endArrow=none;endFill=0;" edge="1" parent="1" source="YiDJv-N9dp5llAnubtPS-10" target="YiDJv-N9dp5llAnubtPS-13">
          <mxGeometry relative="1" as="geometry" />
        </mxCell>
        <mxCell id="YiDJv-N9dp5llAnubtPS-10" value="Comprobar reserva" style="ellipse;whiteSpace=wrap;html=1;" vertex="1" parent="1">
          <mxGeometry x="570" width="120" height="80" as="geometry" />
        </mxCell>
        <mxCell id="YiDJv-N9dp5llAnubtPS-11" value="" style="endArrow=none;dashed=1;html=1;rounded=0;entryX=0;entryY=0.5;entryDx=0;entryDy=0;exitX=1;exitY=0.5;exitDx=0;exitDy=0;" edge="1" parent="1" source="YiDJv-N9dp5llAnubtPS-30" target="YiDJv-N9dp5llAnubtPS-10">
          <mxGeometry width="50" height="50" relative="1" as="geometry">
            <mxPoint x="500" y="200" as="sourcePoint" />
            <mxPoint x="581" y="170" as="targetPoint" />
          </mxGeometry>
        </mxCell>
        <mxCell id="YiDJv-N9dp5llAnubtPS-12" value="&amp;lt;&amp;lt; include &amp;gt;&amp;gt;" style="edgeLabel;html=1;align=center;verticalAlign=middle;resizable=0;points=[];" vertex="1" connectable="0" parent="YiDJv-N9dp5llAnubtPS-11">
          <mxGeometry x="0.1674" y="2" relative="1" as="geometry">
            <mxPoint as="offset" />
          </mxGeometry>
        </mxCell>
        <mxCell id="YiDJv-N9dp5llAnubtPS-13" value="Aerolínea" style="shape=umlActor;verticalLabelPosition=bottom;verticalAlign=top;html=1;outlineConnect=0;" vertex="1" parent="1">
          <mxGeometry x="780" y="10" width="30" height="60" as="geometry" />
        </mxCell>
        <mxCell id="YiDJv-N9dp5llAnubtPS-29" style="rounded=0;orthogonalLoop=1;jettySize=auto;html=1;endArrow=none;endFill=0;" edge="1" parent="1" source="YiDJv-N9dp5llAnubtPS-17" target="YiDJv-N9dp5llAnubtPS-13">
          <mxGeometry relative="1" as="geometry" />
        </mxCell>
        <mxCell id="YiDJv-N9dp5llAnubtPS-17" value="Cancelar" style="ellipse;whiteSpace=wrap;html=1;" vertex="1" parent="1">
          <mxGeometry x="480" y="140" width="120" height="80" as="geometry" />
        </mxCell>
        <mxCell id="YiDJv-N9dp5llAnubtPS-18" value="" style="endArrow=classic;dashed=1;html=1;rounded=0;entryX=1;entryY=0.5;entryDx=0;entryDy=0;startArrow=none;startFill=0;endFill=1;" edge="1" parent="1" source="YiDJv-N9dp5llAnubtPS-17" target="YiDJv-N9dp5llAnubtPS-4">
          <mxGeometry width="50" height="50" relative="1" as="geometry">
            <mxPoint x="360" y="320" as="sourcePoint" />
            <mxPoint x="410" y="270" as="targetPoint" />
          </mxGeometry>
        </mxCell>
        <mxCell id="YiDJv-N9dp5llAnubtPS-19" value="&amp;lt;&amp;lt; extend &amp;gt;&amp;gt;" style="edgeLabel;html=1;align=center;verticalAlign=middle;resizable=0;points=[];" vertex="1" connectable="0" parent="YiDJv-N9dp5llAnubtPS-18">
          <mxGeometry x="0.008" y="-2" relative="1" as="geometry">
            <mxPoint as="offset" />
          </mxGeometry>
        </mxCell>
        <mxCell id="YiDJv-N9dp5llAnubtPS-35" style="edgeStyle=orthogonalEdgeStyle;rounded=0;orthogonalLoop=1;jettySize=auto;html=1;entryX=0;entryY=0.5;entryDx=0;entryDy=0;endArrow=none;endFill=0;" edge="1" parent="1" source="YiDJv-N9dp5llAnubtPS-26" target="YiDJv-N9dp5llAnubtPS-34">
          <mxGeometry relative="1" as="geometry" />
        </mxCell>
        <mxCell id="YiDJv-N9dp5llAnubtPS-26" value="Agente" style="shape=umlActor;verticalLabelPosition=bottom;verticalAlign=top;html=1;outlineConnect=0;" vertex="1" parent="1">
          <mxGeometry x="40" y="430" width="30" height="60" as="geometry" />
        </mxCell>
        <mxCell id="YiDJv-N9dp5llAnubtPS-27" style="edgeStyle=orthogonalEdgeStyle;rounded=0;orthogonalLoop=1;jettySize=auto;html=1;entryX=0.5;entryY=0;entryDx=0;entryDy=0;entryPerimeter=0;endArrow=none;endFill=0;startArrow=classic;startFill=1;" edge="1" parent="1" source="YiDJv-N9dp5llAnubtPS-1" target="YiDJv-N9dp5llAnubtPS-26">
          <mxGeometry relative="1" as="geometry" />
        </mxCell>
        <mxCell id="YiDJv-N9dp5llAnubtPS-30" value="Reservar" style="ellipse;whiteSpace=wrap;html=1;" vertex="1" parent="1">
          <mxGeometry x="340" width="120" height="80" as="geometry" />
        </mxCell>
        <mxCell id="YiDJv-N9dp5llAnubtPS-31" value="" style="endArrow=none;dashed=1;html=1;rounded=0;entryX=0;entryY=0.5;entryDx=0;entryDy=0;endFill=0;startArrow=classic;startFill=1;" edge="1" parent="1" source="YiDJv-N9dp5llAnubtPS-4" target="YiDJv-N9dp5llAnubtPS-30">
          <mxGeometry width="50" height="50" relative="1" as="geometry">
            <mxPoint x="290" y="220" as="sourcePoint" />
            <mxPoint x="340" y="170" as="targetPoint" />
          </mxGeometry>
        </mxCell>
        <mxCell id="YiDJv-N9dp5llAnubtPS-33" value="&amp;lt;&amp;lt; extend &amp;gt;&amp;gt;" style="edgeLabel;html=1;align=center;verticalAlign=middle;resizable=0;points=[];" vertex="1" connectable="0" parent="YiDJv-N9dp5llAnubtPS-31">
          <mxGeometry x="-0.1055" relative="1" as="geometry">
            <mxPoint as="offset" />
          </mxGeometry>
        </mxCell>
        <mxCell id="YiDJv-N9dp5llAnubtPS-36" style="rounded=0;orthogonalLoop=1;jettySize=auto;html=1;exitX=1;exitY=0;exitDx=0;exitDy=0;entryX=0;entryY=1;entryDx=0;entryDy=0;dashed=1;" edge="1" parent="1" source="YiDJv-N9dp5llAnubtPS-34" target="YiDJv-N9dp5llAnubtPS-7">
          <mxGeometry relative="1" as="geometry" />
        </mxCell>
        <mxCell id="YiDJv-N9dp5llAnubtPS-37" value="&amp;lt;&amp;lt; include &amp;gt;&amp;gt;" style="edgeLabel;html=1;align=center;verticalAlign=middle;resizable=0;points=[];" vertex="1" connectable="0" parent="YiDJv-N9dp5llAnubtPS-36">
          <mxGeometry x="-0.0508" y="1" relative="1" as="geometry">
            <mxPoint as="offset" />
          </mxGeometry>
        </mxCell>
        <mxCell id="YiDJv-N9dp5llAnubtPS-34" value="Gestionar cliente" style="ellipse;whiteSpace=wrap;html=1;" vertex="1" parent="1">
          <mxGeometry x="210" y="420" width="120" height="80" as="geometry" />
        </mxCell>
        <mxCell id="YiDJv-N9dp5llAnubtPS-39" style="rounded=0;orthogonalLoop=1;jettySize=auto;html=1;exitX=0;exitY=0.5;exitDx=0;exitDy=0;entryX=1;entryY=0.5;entryDx=0;entryDy=0;dashed=1;" edge="1" parent="1" source="YiDJv-N9dp5llAnubtPS-38" target="YiDJv-N9dp5llAnubtPS-34">
          <mxGeometry relative="1" as="geometry" />
        </mxCell>
        <mxCell id="YiDJv-N9dp5llAnubtPS-40" value="&amp;lt;&amp;lt; extend &amp;gt;&amp;gt;" style="edgeLabel;html=1;align=center;verticalAlign=middle;resizable=0;points=[];" vertex="1" connectable="0" parent="YiDJv-N9dp5llAnubtPS-39">
          <mxGeometry x="-0.08" y="3" relative="1" as="geometry">
            <mxPoint as="offset" />
          </mxGeometry>
        </mxCell>
        <mxCell id="YiDJv-N9dp5llAnubtPS-38" value="clave" style="ellipse;whiteSpace=wrap;html=1;" vertex="1" parent="1">
          <mxGeometry x="510" y="420" width="120" height="80" as="geometry" />
        </mxCell>
      </root>
    </mxGraphModel>
  </diagram>
</mxfile>
